<svg width="229" height="48" viewBox="0 0 229 48" fill="none" xmlns="http://www.w3.org/2000/svg">
<g clip-path="url(#clip0_424_3023)">
<mask id="mask0_424_3023" style="mask-type:luminance" maskUnits="userSpaceOnUse" x="0" y="0" width="229" height="48">
<path d="M228.969 0H0V48H228.969V0Z" fill="white"/>
</mask>
<g mask="url(#mask0_424_3023)">
<path d="M71.4634 19.1166H66.1506L65.2383 24.8945H64.4333L66.4368 12.1939H73.5742L73.4669 12.9273H67.1345L66.2758 18.3653H71.5886L71.4634 19.1166ZM77.5171 13.6607C77.1593 13.6607 76.891 13.3924 76.891 13.0525C76.891 12.5874 77.2666 12.176 77.7139 12.176C78.0716 12.176 78.3399 12.4443 78.3399 12.7842C78.3399 13.2493 77.9643 13.6607 77.5171 13.6607ZM75.3526 24.8945L76.7121 16.3082H77.4813L76.1218 24.8945H75.3526ZM81.4043 24.8945H80.6351L81.9946 16.3082H82.6028L82.4955 18.0255C83.3005 16.7375 84.3559 16.0935 85.7512 16.0935C87.7368 16.0935 88.8458 17.5067 88.5059 19.6712L87.6831 24.8945H86.9139L87.7189 19.8322C88.0409 17.8466 87.3074 16.8091 85.6617 16.8091C83.8192 16.8091 82.4597 18.2401 82.102 20.4761L81.4043 24.8945ZM95.4294 25.1092C93.4259 25.1092 92.0486 23.5887 92.0486 21.4063C92.0486 18.4011 94.0341 16.0935 96.6279 16.0935C98.1842 16.0935 99.2933 16.8806 99.651 18.2401L100.635 11.9792H101.404L99.3648 24.8945H98.703L98.8997 23.0163C98.059 24.4294 96.9141 25.1092 95.4294 25.1092ZM95.501 24.3937C97.6654 24.3937 99.329 22.3544 99.329 19.7069C99.329 17.8466 98.3631 16.8091 96.61 16.8091C94.4635 16.8091 92.8356 18.7947 92.8356 21.4063C92.8356 23.2309 93.8731 24.3937 95.501 24.3937Z" fill="#004763"/>
<path d="M67.6145 43.975H64.6301V29.9924H67.6145V43.975ZM73.5623 38.7576H65.6736V36.1072H73.5623V38.7576ZM74.7519 32.6429H65.6736V29.9924H74.7519V32.6429ZM84.5716 43.975H82.8185C82.4569 43.975 82.116 43.9124 81.7959 43.7872C81.476 43.662 81.2116 43.4603 81.0029 43.182C80.8082 42.8898 80.7107 42.5003 80.7107 42.0133V38.4863L80.7942 38.069C80.7942 37.4429 80.6899 36.9559 80.4812 36.6081C80.2725 36.2603 79.8203 36.0863 79.1246 36.0863C78.4708 36.0863 77.8656 36.2533 77.309 36.5872C76.7525 36.9073 76.2934 37.3247 75.9316 37.8394L74.429 35.669C74.7629 35.2933 75.1734 34.9455 75.6603 34.6255C76.1473 34.3054 76.6969 34.0481 77.309 33.8533C77.9351 33.6446 78.6099 33.5403 79.3333 33.5403C80.6272 33.5403 81.629 33.8812 82.3386 34.5629C83.0621 35.2307 83.4238 36.2046 83.4238 37.4846V40.9907C83.4238 41.2133 83.4655 41.3734 83.549 41.4707C83.6465 41.5542 83.7856 41.5959 83.9664 41.5959H84.5716V43.975ZM77.3925 44.2046C76.5994 44.2046 75.9525 43.9959 75.4516 43.5785C74.9507 43.1473 74.7003 42.5212 74.7003 41.7003C74.7003 40.9211 74.9439 40.295 75.4307 39.822C75.9316 39.335 76.662 38.9246 77.622 38.5907L81.0238 37.3176L81.2951 39.0916L78.5403 40.2394C78.1369 40.4063 77.8516 40.5733 77.6846 40.7403C77.5317 40.8933 77.4551 41.0672 77.4551 41.262C77.4551 41.4986 77.5385 41.6864 77.7055 41.8255C77.8865 41.9507 78.1508 42.0133 78.4985 42.0133C78.8465 42.0133 79.1595 41.9716 79.4377 41.8881C79.716 41.7907 79.9456 41.6585 80.1264 41.4916C80.3212 41.3246 80.4673 41.1229 80.5646 40.8863C80.6621 40.6498 80.7107 40.3716 80.7107 40.0516L80.7733 41.0533C80.676 41.5124 80.502 41.9854 80.2516 42.4724C80.0152 42.9454 79.6604 43.356 79.1872 43.7037C78.7281 44.0376 78.1299 44.2046 77.3925 44.2046ZM90.3864 44.1837C89.343 44.1837 88.4386 43.9612 87.6734 43.5159C86.9082 43.0568 86.3099 42.4237 85.8786 41.6168C85.4612 40.8099 85.2525 39.8916 85.2525 38.862C85.2525 37.8185 85.4612 36.9003 85.8786 36.1072C86.3099 35.3003 86.9082 34.6742 87.6734 34.229C88.4386 33.7698 89.343 33.5403 90.3864 33.5403C91.6107 33.5403 92.6334 33.8394 93.4543 34.4377C94.2752 35.022 94.8387 35.7524 95.1447 36.629L92.6612 38.069C92.5499 37.4429 92.3203 36.949 91.9725 36.5872C91.6248 36.2116 91.1307 36.0237 90.4908 36.0237C90.0595 36.0237 89.6769 36.1351 89.343 36.3576C89.0091 36.5663 88.7516 36.8794 88.5708 37.2968C88.39 37.7142 88.2995 38.2359 88.2995 38.862C88.2995 39.4881 88.39 40.0168 88.5708 40.4481C88.7516 40.8655 89.0091 41.1785 89.343 41.3872C89.6769 41.5959 90.0595 41.7003 90.4908 41.7003C91.1307 41.7003 91.6248 41.5194 91.9725 41.1577C92.3203 40.7959 92.5499 40.295 92.6612 39.655L95.1447 41.095C94.8387 41.9716 94.2752 42.709 93.4543 43.3072C92.6334 43.8916 91.6107 44.1837 90.3864 44.1837ZM100.86 44.1837C99.7748 44.1837 98.8356 43.9612 98.0426 43.5159C97.2636 43.0706 96.6652 42.4446 96.2478 41.6377C95.8304 40.8307 95.6217 39.9055 95.6217 38.862C95.6217 37.8047 95.8304 36.8794 96.2478 36.0863C96.6652 35.2794 97.2496 34.6534 98.0009 34.2081C98.7522 33.7628 99.6218 33.5403 100.61 33.5403C101.695 33.5403 102.599 33.756 103.323 34.1872C104.046 34.6185 104.589 35.2028 104.95 35.9403C105.312 36.6777 105.493 37.4916 105.493 38.382C105.493 38.6046 105.479 38.8411 105.451 39.0916C105.437 39.3281 105.417 39.509 105.389 39.6342H97.7504V37.9229H103.302L102.822 38.3194C102.822 37.5125 102.641 36.9003 102.279 36.4829C101.917 36.0516 101.368 35.8359 100.63 35.8359C99.9349 35.8359 99.3853 36.0516 98.9817 36.4829C98.5922 36.9003 98.3974 37.5334 98.3974 38.382V39.1542C98.3974 39.7524 98.5017 40.2464 98.7104 40.6359C98.9191 41.0116 99.2113 41.2967 99.5869 41.4916C99.9766 41.6724 100.415 41.7629 100.902 41.7629C101.389 41.7629 101.799 41.7003 102.133 41.575C102.467 41.4498 102.745 41.2759 102.968 41.0533C103.191 40.8167 103.364 40.5524 103.49 40.2603L105.305 42.0759C104.93 42.6185 104.38 43.1055 103.657 43.5368C102.947 43.968 102.015 44.1837 100.86 44.1837ZM113.155 44.2046C112.362 44.2046 111.743 44.0238 111.298 43.662C110.853 43.3002 110.533 42.8411 110.338 42.2846C110.143 41.7141 110.011 41.1159 109.942 40.4898L110.025 39.4255C110.025 39.9819 110.095 40.4411 110.234 40.8029C110.387 41.1647 110.609 41.436 110.902 41.6168C111.194 41.7837 111.548 41.8672 111.966 41.8672C112.648 41.8672 113.183 41.6098 113.573 41.095C113.976 40.5803 114.178 39.8359 114.178 38.862C114.178 37.8881 113.976 37.1437 113.573 36.629C113.183 36.1142 112.648 35.8568 111.966 35.8568C111.548 35.8568 111.194 35.9473 110.902 36.1281C110.609 36.3089 110.387 36.5802 110.234 36.942C110.095 37.3038 110.025 37.7629 110.025 38.3194L109.942 37.255C110.011 36.629 110.15 36.0307 110.359 35.4603C110.581 34.8898 110.922 34.4306 111.382 34.0829C111.855 33.7211 112.488 33.5403 113.281 33.5403C114.074 33.5403 114.762 33.749 115.347 34.1663C115.945 34.5837 116.404 35.189 116.724 35.982C117.058 36.775 117.225 37.735 117.225 38.862C117.225 39.989 117.058 40.956 116.724 41.7629C116.39 42.5559 115.917 43.1611 115.305 43.5785C114.707 43.9959 113.99 44.2046 113.155 44.2046ZM110.025 43.975H107.041V29.9924H110.025V43.975ZM123.387 44.1837C122.357 44.1837 121.453 43.9612 120.674 43.5159C119.908 43.0568 119.317 42.4237 118.9 41.6168C118.482 40.8099 118.274 39.8916 118.274 38.862C118.274 37.8185 118.482 36.9003 118.9 36.1072C119.317 35.3003 119.908 34.6742 120.674 34.229C121.453 33.7698 122.357 33.5403 123.387 33.5403C124.444 33.5403 125.362 33.7698 126.141 34.229C126.934 34.6742 127.54 35.3003 127.957 36.1072C128.388 36.9003 128.604 37.8185 128.604 38.862C128.604 39.8916 128.388 40.8099 127.957 41.6168C127.54 42.4237 126.934 43.0568 126.141 43.5159C125.362 43.9612 124.444 44.1837 123.387 44.1837ZM123.428 41.7629C123.86 41.7629 124.235 41.6655 124.555 41.4707C124.875 41.2759 125.126 40.9698 125.307 40.5524C125.487 40.1212 125.578 39.5577 125.578 38.862C125.578 38.1663 125.487 37.6098 125.307 37.1924C125.126 36.7612 124.875 36.4481 124.555 36.2533C124.235 36.0585 123.86 35.9611 123.428 35.9611C123.011 35.9611 122.642 36.0585 122.322 36.2533C122.002 36.4481 121.752 36.7612 121.571 37.1924C121.39 37.6098 121.3 38.1663 121.3 38.862C121.3 39.5577 121.39 40.1212 121.571 40.5524C121.752 40.9698 122.002 41.2759 122.322 41.4707C122.642 41.6655 123.011 41.7629 123.428 41.7629ZM134.835 44.1837C133.806 44.1837 132.902 43.9612 132.122 43.5159C131.357 43.0568 130.766 42.4237 130.349 41.6168C129.931 40.8099 129.722 39.8916 129.722 38.862C129.722 37.8185 129.931 36.9003 130.349 36.1072C130.766 35.3003 131.357 34.6742 132.122 34.229C132.902 33.7698 133.806 33.5403 134.835 33.5403C135.893 33.5403 136.811 33.7698 137.59 34.229C138.383 34.6742 138.989 35.3003 139.406 36.1072C139.837 36.9003 140.053 37.8185 140.053 38.862C140.053 39.8916 139.837 40.8099 139.406 41.6168C138.989 42.4237 138.383 43.0568 137.59 43.5159C136.811 43.9612 135.893 44.1837 134.835 44.1837ZM134.877 41.7629C135.308 41.7629 135.684 41.6655 136.004 41.4707C136.324 41.2759 136.575 40.9698 136.755 40.5524C136.936 40.1212 137.027 39.5577 137.027 38.862C137.027 38.1663 136.936 37.6098 136.755 37.1924C136.575 36.7612 136.324 36.4481 136.004 36.2533C135.684 36.0585 135.308 35.9611 134.877 35.9611C134.46 35.9611 134.091 36.0585 133.771 36.2533C133.451 36.4481 133.201 36.7612 133.02 37.1924C132.839 37.6098 132.749 38.1663 132.749 38.862C132.749 39.5577 132.839 40.1212 133.02 40.5524C133.201 40.9698 133.451 41.2759 133.771 41.4707C134.091 41.6655 134.46 41.7629 134.877 41.7629ZM144.514 43.975H141.53V29.9924H144.514V35.5437L144.368 38.215L146.247 35.9611L148.396 33.749H151.923L146.747 39.029L146.393 39.1124L144.514 41.0742V43.975ZM151.902 43.975H148.5L145.37 38.6742L147.687 37.4846L151.902 43.975ZM159.812 43.975H156.827V29.9924H159.812V43.975ZM171.473 43.975H168.489V37.8811C168.489 37.255 168.379 36.7612 168.155 36.3994C167.946 36.0376 167.495 35.8568 166.799 35.8568C166.326 35.8568 165.95 35.9473 165.672 36.1281C165.408 36.3089 165.212 36.5802 165.087 36.942C164.977 37.3038 164.92 37.7629 164.92 38.3194L164.837 37.255C164.907 36.629 165.066 36.0307 165.317 35.4603C165.567 34.8898 165.937 34.4306 166.423 34.0829C166.924 33.7211 167.565 33.5403 168.343 33.5403C169.318 33.5403 170.083 33.8254 170.639 34.3959C171.196 34.9664 171.473 35.7803 171.473 36.8376V43.975ZM164.92 43.975H161.936V33.749H164.92V43.975ZM177.108 44.1837C176.357 44.1837 175.731 44.0447 175.23 43.7663C174.742 43.488 174.382 43.1055 174.145 42.6185C173.908 42.1315 173.79 41.575 173.79 40.949V32.5385L176.774 30.9733V40.4063C176.774 40.8237 176.865 41.1159 177.046 41.2829C177.241 41.4498 177.484 41.5333 177.776 41.5333C178.096 41.5333 178.389 41.429 178.652 41.2203C178.931 40.9977 179.146 40.7403 179.299 40.4481L180.155 42.8898C179.933 43.1681 179.563 43.4533 179.049 43.7455C178.535 44.0376 177.888 44.1837 177.108 44.1837ZM179.612 36.0237H172.266V33.749H179.612V36.0237ZM185.456 44.1837C184.371 44.1837 183.432 43.9612 182.639 43.5159C181.859 43.0706 181.261 42.4446 180.844 41.6377C180.426 40.8307 180.218 39.9055 180.218 38.862C180.218 37.8047 180.426 36.8794 180.844 36.0863C181.261 35.2794 181.846 34.6534 182.597 34.2081C183.348 33.7628 184.217 33.5403 185.206 33.5403C186.291 33.5403 187.196 33.756 187.919 34.1872C188.642 34.6185 189.184 35.2028 189.546 35.9403C189.909 36.6777 190.089 37.4916 190.089 38.382C190.089 38.6046 190.076 38.8411 190.047 39.0916C190.034 39.3281 190.013 39.509 189.985 39.6342H182.346V37.9229H187.898L187.418 38.3194C187.418 37.5125 187.237 36.9003 186.875 36.4829C186.513 36.0516 185.964 35.8359 185.226 35.8359C184.53 35.8359 183.982 36.0516 183.578 36.4829C183.189 36.9003 182.993 37.5334 182.993 38.382V39.1542C182.993 39.7524 183.098 40.2464 183.306 40.6359C183.515 41.0116 183.807 41.2967 184.183 41.4916C184.572 41.6724 185.01 41.7629 185.498 41.7629C185.985 41.7629 186.395 41.7003 186.729 41.575C187.063 41.4498 187.342 41.2759 187.564 41.0533C187.786 40.8167 187.96 40.5524 188.086 40.2603L189.901 42.0759C189.526 42.6185 188.975 43.1055 188.252 43.5368C187.543 43.968 186.611 44.1837 185.456 44.1837ZM194.58 43.975H191.596V33.749H194.58V43.975ZM194.58 38.5698L194.497 37.5055C194.552 37.0325 194.656 36.5663 194.81 36.1072C194.962 35.6342 195.171 35.2028 195.436 34.8133C195.713 34.4238 196.055 34.1176 196.459 33.895C196.861 33.6585 197.335 33.5403 197.878 33.5403C198.643 33.5403 199.219 33.7698 199.61 34.229C200.012 34.6742 200.215 35.3003 200.215 36.1072C200.215 36.6498 200.145 37.1368 200.007 37.5681C199.881 37.9855 199.756 38.2915 199.631 38.4863H196.751C196.945 38.2915 197.112 38.0342 197.252 37.7142C197.404 37.3941 197.481 37.0881 197.481 36.7959C197.481 36.5037 197.411 36.2603 197.273 36.0655C197.132 35.8706 196.897 35.7733 196.563 35.7733C196.229 35.7733 195.909 35.8915 195.603 36.1281C195.296 36.3506 195.046 36.6707 194.852 37.0881C194.67 37.5055 194.58 37.9993 194.58 38.5698ZM205.868 44.1837C204.783 44.1837 203.844 43.9612 203.051 43.5159C202.271 43.0706 201.673 42.4446 201.256 41.6377C200.838 40.8307 200.63 39.9055 200.63 38.862C200.63 37.8047 200.838 36.8794 201.256 36.0863C201.673 35.2794 202.257 34.6534 203.009 34.2081C203.76 33.7628 204.629 33.5403 205.617 33.5403C206.703 33.5403 207.606 33.756 208.331 34.1872C209.053 34.6185 209.596 35.2028 209.958 35.9403C210.319 36.6777 210.501 37.4916 210.501 38.382C210.501 38.6046 210.486 38.8411 210.459 39.0916C210.444 39.3281 210.423 39.509 210.397 39.6342H202.758V37.9229H208.31L207.83 38.3194C207.83 37.5125 207.648 36.9003 207.287 36.4829C206.925 36.0516 206.375 35.8359 205.638 35.8359C204.942 35.8359 204.392 36.0516 203.99 36.4829C203.599 36.9003 203.405 37.5334 203.405 38.382V39.1542C203.405 39.7524 203.51 40.2464 203.718 40.6359C203.927 41.0116 204.219 41.2967 204.595 41.4916C204.984 41.6724 205.422 41.7629 205.91 41.7629C206.396 41.7629 206.807 41.7003 207.141 41.575C207.475 41.4498 207.752 41.2759 207.976 41.0533C208.198 40.8167 208.372 40.5524 208.497 40.2603L210.313 42.0759C209.937 42.6185 209.387 43.1055 208.664 43.5368C207.955 43.968 207.022 44.1837 205.868 44.1837ZM216.353 44.1837C215.602 44.1837 214.885 44.1003 214.204 43.9333C213.521 43.7525 212.923 43.5089 212.409 43.2029C211.893 42.8828 211.483 42.5212 211.178 42.1177L212.555 40.0933C212.847 40.3855 213.195 40.6776 213.599 40.9698C214.016 41.2481 214.46 41.4777 214.934 41.6585C215.42 41.8255 215.921 41.909 216.437 41.909C216.839 41.909 217.152 41.8463 217.376 41.7211C217.611 41.582 217.731 41.3802 217.731 41.1159C217.731 40.8516 217.585 40.6498 217.293 40.5107C217.014 40.3716 216.604 40.2324 216.061 40.0933L214.684 39.7594C214.071 39.5924 213.521 39.3907 213.035 39.1542C212.561 38.9176 212.185 38.6116 211.908 38.2359C211.643 37.8464 211.512 37.3524 211.512 36.7542C211.512 35.7386 211.887 34.9524 212.639 34.3959C213.39 33.8394 214.392 33.5611 215.644 33.5611C216.756 33.5611 217.695 33.7628 218.461 34.1663C219.239 34.5559 219.81 34.9733 220.172 35.4185L218.837 37.422C218.336 36.9073 217.786 36.5107 217.188 36.2324C216.589 35.9541 215.991 35.815 215.393 35.815C215.031 35.815 214.746 35.8847 214.538 36.0237C214.329 36.149 214.225 36.3368 214.225 36.5872C214.225 36.8515 214.35 37.0602 214.6 37.2133C214.864 37.3664 215.337 37.5334 216.019 37.7142L217.167 38.0272C218.294 38.3333 219.114 38.7229 219.63 39.1959C220.144 39.6689 220.402 40.295 220.402 41.0742C220.402 41.7281 220.228 42.2916 219.88 42.7646C219.531 43.2237 219.059 43.5785 218.461 43.829C217.862 44.0655 217.16 44.1837 216.353 44.1837ZM225.59 44.1837C224.838 44.1837 224.212 44.0447 223.711 43.7663C223.224 43.488 222.862 43.1055 222.626 42.6185C222.389 42.1315 222.271 41.575 222.271 40.949V32.5385L225.256 30.9733V40.4063C225.256 40.8237 225.345 41.1159 225.527 41.2829C225.721 41.4498 225.965 41.5333 226.257 41.5333C226.576 41.5333 226.869 41.429 227.134 41.2203C227.411 40.9977 227.627 40.7403 227.781 40.4481L228.637 42.8898C228.413 43.1681 228.045 43.4533 227.531 43.7455C227.015 44.0376 226.368 44.1837 225.59 44.1837ZM228.094 36.0237H220.748V33.749H228.094V36.0237Z" fill="#0073F9"/>
<path d="M33.8385 14.4166L16.7077 43.9752H0L25.4819 0L33.8385 14.4166Z" fill="#0073F9"/>
<path d="M58.4348 48.0001H14.3105L16.6247 43.9936H50.9085L33.7665 14.348L36.37 9.83862L58.4348 48.0001Z" fill="#0073F9"/>
</g>
</g>
<defs>
<clipPath id="clip0_424_3023">
<rect width="228.969" height="48" fill="white"/>
</clipPath>
</defs>
</svg>
