<svg width="1038" height="536" viewBox="0 0 1038 536" fill="none" xmlns="http://www.w3.org/2000/svg">
<g opacity="0.1" clip-path="url(#clip0_370_3946)">
<path d="M64.5767 593.358C62.7626 593.358 61.0192 592.369 60.124 590.672C51.195 573.827 43.1142 556.276 36.117 538.536C35.104 535.944 36.3526 533.023 38.9442 532.01C41.5357 530.973 44.457 532.245 45.4937 534.837C52.373 552.224 60.2889 569.422 69.053 585.937C70.3487 588.387 69.4299 591.45 66.9562 592.746C66.1787 593.17 65.3777 593.358 64.5767 593.358Z" fill="#8EC0FA"/>
<path d="M1005.04 520.536C1004.5 520.536 1003.93 520.442 1003.39 520.254C1000.75 519.358 999.362 516.484 1000.26 513.846C1006.36 496.176 1011.52 477.941 1015.59 459.683C1016.21 456.973 1018.89 455.254 1021.6 455.866C1024.31 456.479 1026.03 459.164 1025.42 461.874C1021.25 480.509 1015.97 499.097 1009.78 517.12C1009.09 519.241 1007.14 520.536 1005.04 520.536Z" fill="#8EC0FA"/>
<path d="M22.8767 487.79C20.6621 487.79 18.636 486.306 18.0234 484.068C13.0524 465.691 9.04734 446.797 6.12599 427.926C5.70192 425.169 7.58667 422.601 10.3431 422.177C13.076 421.777 15.6675 423.638 16.0916 426.394C18.9658 444.888 22.8767 463.406 27.7534 481.429C28.4838 484.115 26.9053 486.871 24.2195 487.601C23.7719 487.719 23.3243 487.79 22.8767 487.79Z" fill="#8EC0FA"/>
<path d="M1029.87 409.785C1029.68 409.785 1029.5 409.761 1029.31 409.761C1026.55 409.455 1024.55 406.981 1024.85 404.201C1026.88 385.66 1027.92 366.765 1027.92 348.012C1027.92 333.075 1027.26 318.021 1025.98 303.249C1025.75 300.469 1027.8 298.043 1030.58 297.784C1033.38 297.524 1035.79 299.598 1036.04 302.354C1037.36 317.432 1038.02 332.793 1038.02 348.012C1038.02 367.119 1036.96 386.39 1034.89 405.308C1034.58 407.876 1032.42 409.785 1029.87 409.785Z" fill="#8EC0FA"/>
<path d="M5.51288 375.623C2.82712 375.623 0.588983 373.503 0.494746 370.794C0.164915 363.231 0 355.551 0 347.988C0 336.468 0.376949 324.853 1.13085 313.427C1.31932 310.647 3.65169 308.503 6.47881 308.738C9.25881 308.927 11.3556 311.33 11.1671 314.11C10.4368 325.301 10.0598 336.703 10.0598 348.012C10.0598 355.433 10.2247 362.948 10.531 370.393C10.6488 373.173 8.50491 375.529 5.72491 375.647C5.67779 375.623 5.60712 375.623 5.51288 375.623Z" fill="#8EC0FA"/>
<path d="M13.0047 262.397C12.7219 262.397 12.4157 262.374 12.1094 262.327C9.37652 261.832 7.53889 259.217 8.03364 256.484C11.3791 237.707 15.8082 218.907 21.2033 200.625C21.9808 197.962 24.7843 196.431 27.4701 197.232C30.1323 198.033 31.6636 200.813 30.8862 203.499C25.5853 221.428 21.2504 239.851 17.9521 258.274C17.528 260.677 15.4077 262.397 13.0047 262.397Z" fill="#8EC0FA"/>
<path d="M1022.95 251.561C1020.59 251.561 1018.49 249.912 1018 247.509C1014.32 229.156 1009.59 210.85 1003.89 193.039C1003.04 190.377 1004.5 187.55 1007.16 186.702C1009.82 185.854 1012.65 187.315 1013.5 189.977C1019.29 208.141 1024.15 226.823 1027.89 245.53C1028.44 248.262 1026.67 250.925 1023.94 251.467C1023.61 251.537 1023.28 251.561 1022.95 251.561Z" fill="#8EC0FA"/>
<path d="M45.1863 153.53C44.5267 153.53 43.867 153.389 43.2309 153.129C40.663 152.046 39.4614 149.101 40.5452 146.533C47.9428 128.958 56.4241 111.594 65.7536 94.9379C67.1201 92.5113 70.1828 91.6396 72.6094 93.006C75.036 94.3724 75.9077 97.4352 74.5412 99.8618C65.4002 116.188 57.0838 133.198 49.8275 150.444C49.0265 152.375 47.1418 153.53 45.1863 153.53Z" fill="#8EC0FA"/>
<path d="M988.431 143.447C986.499 143.447 984.662 142.34 983.837 140.455C976.204 123.398 967.534 106.577 958.063 90.4623C956.65 88.0592 957.451 84.973 959.854 83.5594C962.233 82.1458 965.343 82.9468 966.757 85.3499C976.416 101.794 985.274 118.946 993.049 136.356C994.18 138.9 993.049 141.869 990.504 143.023C989.821 143.306 989.114 143.447 988.431 143.447Z" fill="#8EC0FA"/>
<path d="M100.598 54.4629C99.5849 54.4629 98.5718 54.1566 97.6765 53.5205C95.4148 51.8949 94.8965 48.7615 96.4986 46.4998C107.571 30.9978 119.657 15.9198 132.403 1.71354C134.264 -0.359679 137.445 -0.52459 139.518 1.31304C141.591 3.17422 141.756 6.35474 139.918 8.42796C127.432 22.3751 115.582 37.1468 104.697 52.3425C103.731 53.7325 102.176 54.4629 100.598 54.4629Z" fill="#8EC0FA"/>
<path d="M930.946 45.6271C929.415 45.6271 927.907 44.9203 926.894 43.601C915.703 28.6173 903.547 14.1047 890.778 0.440331C888.869 -1.58577 888.987 -4.78983 891.013 -6.67457C893.039 -8.58288 896.22 -8.46509 898.128 -6.43898C911.156 7.48457 923.549 22.3034 934.975 37.5698C936.648 39.808 936.176 42.9649 933.962 44.6376C933.043 45.2973 931.983 45.6271 930.946 45.6271Z" fill="#8EC0FA"/>
<path d="M869.245 654.612L865.688 651.502C939.263 567.513 979.785 459.729 979.785 348.011C979.785 236.269 939.263 128.485 865.688 44.52L869.245 41.4102C943.575 126.247 984.521 235.138 984.521 348.035C984.521 460.884 943.575 569.775 869.245 654.612Z" fill="#8EC0FA"/>
<path d="M168.732 654.612C94.402 569.775 53.4795 460.884 53.4795 347.988C53.4795 235.092 94.4256 126.2 168.755 41.3633L172.313 44.4731C98.7369 128.462 58.2149 236.222 58.2149 347.964C58.2149 459.683 98.7369 567.466 172.313 651.455L168.732 654.612Z" fill="#8EC0FA"/>
<path d="M518.988 658.1C347.995 658.1 208.9 518.982 208.9 348.012C208.9 177.018 348.018 37.9241 518.988 37.9241C689.982 37.9241 829.076 177.042 829.076 348.012C829.099 518.982 689.982 658.1 518.988 658.1ZM518.988 41.3873C349.926 41.3873 212.364 178.927 212.364 348.012C212.364 517.073 349.903 654.636 518.988 654.636C688.05 654.636 825.613 517.097 825.613 348.012C825.613 178.927 688.073 41.3873 518.988 41.3873Z" fill="#8EC0FA"/>
<path d="M570.724 347.988C570.724 376.566 547.566 399.724 518.988 399.724C490.411 399.724 467.252 376.566 467.252 347.988C467.252 319.411 490.411 296.252 518.988 296.252C547.566 296.252 570.724 319.411 570.724 347.988Z" fill="#8EC0FA"/>
<path d="M518.988 484.397C443.787 484.397 382.603 423.213 382.603 348.012C382.603 272.811 443.787 211.627 518.988 211.627C594.189 211.627 655.373 272.811 655.373 348.012C655.397 423.19 594.213 484.397 518.988 484.397ZM518.988 216.716C446.59 216.716 387.716 275.614 387.716 347.988C387.716 420.386 446.614 479.261 518.988 479.261C591.386 479.261 650.284 420.362 650.284 347.988C650.284 275.59 591.386 216.716 518.988 216.716Z" fill="#8EC0FA"/>
<path d="M521.368 104.408H518.988V590.578H521.368V104.408Z" fill="#8EC0FA"/>
<path d="M762.097 345.113H275.927V347.987H762.097V345.113Z" fill="#8EC0FA"/>
</g>
<defs>
<clipPath id="clip0_370_3946">
<rect width="1038" height="1038" fill="white" transform="translate(0 -171)"/>
</clipPath>
</defs>
</svg>
