<svg width="24" height="24" viewBox="0 0 24 24" fill="none" xmlns="http://www.w3.org/2000/svg">
<path d="M21.1947 12.0271C21.1947 11.3658 21.1307 10.6831 21.024 10.0431H11.7867V13.8191H17.0773C16.864 15.0351 16.16 16.1018 15.1147 16.7844L18.272 19.2378C20.128 17.5098 21.1947 14.9924 21.1947 12.0271Z" fill="#4280EF"/>
<path d="M11.7866 21.5844C14.432 21.5844 16.6506 20.7097 18.272 19.2164L15.1146 16.7844C14.24 17.3817 13.1093 17.723 11.7866 17.723C9.22664 17.723 7.07198 15.995 6.28264 13.691L3.03998 16.187C4.70398 19.4937 8.07464 21.5844 11.7866 21.5844Z" fill="#34A353"/>
<path d="M6.28267 13.6697C5.87733 12.4537 5.87733 11.131 6.28267 9.91504L3.04 7.39771C1.65333 10.171 1.65333 13.435 3.04 16.187L6.28267 13.6697Z" fill="#F6B704"/>
<path d="M11.7866 5.88304C13.1733 5.86171 14.5386 6.39504 15.5413 7.35504L18.336 4.53904C16.5653 2.87504 14.2186 1.97904 11.7866 2.00037C8.07464 2.00037 4.70398 4.09104 3.03998 7.39771L6.28264 9.91504C7.07198 7.5897 9.22664 5.88304 11.7866 5.88304Z" fill="#E54335"/>
</svg>
