<svg width="1600" height="1192" viewBox="0 0 1600 1192" fill="none" xmlns="http://www.w3.org/2000/svg">
<g opacity="0.3" clip-path="url(#clip0_370_3812)">
<path d="M800.89 1192C776.922 1191.89 752.882 1190.98 729.204 1188.91C724.919 1188.55 721.76 1184.77 722.159 1180.49C722.522 1176.2 726.263 1172.97 730.584 1173.44C753.789 1175.48 777.503 1176.35 800.89 1176.46C806.373 1176.46 811.857 1176.38 817.304 1176.27C821.553 1176.09 825.148 1179.58 825.257 1183.86C825.366 1188.15 821.953 1191.71 817.667 1191.78C812.039 1191.93 806.482 1192 800.89 1192Z" fill="#E3EFFE"/>
<path d="M904.751 1185.1C900.902 1185.1 897.561 1182.27 897.052 1178.34C896.471 1174.1 899.485 1170.17 903.734 1169.63C932.35 1165.85 961.039 1160.44 988.965 1153.51C993.141 1152.52 997.354 1155.03 998.371 1159.17C999.388 1163.35 996.846 1167.52 992.706 1168.58C964.235 1175.62 934.965 1181.14 905.768 1184.99C905.441 1185.1 905.078 1185.1 904.751 1185.1Z" fill="#E3EFFE"/>
<path d="M643.174 1176.46C642.665 1176.46 642.157 1176.42 641.648 1176.31C612.814 1170.5 583.98 1163.02 555.981 1154.09C551.914 1152.78 549.626 1148.42 550.934 1144.32C552.241 1140.25 556.635 1138 560.702 1139.27C588.156 1148.06 616.446 1155.39 644.699 1161.06C648.911 1161.89 651.635 1166 650.763 1170.21C650.037 1173.92 646.805 1176.46 643.174 1176.46Z" fill="#E3EFFE"/>
<path d="M1074.6 1143.12C1071.44 1143.12 1068.46 1141.16 1067.3 1138.04C1065.81 1134.01 1067.88 1129.54 1071.91 1128.05C1098.89 1118.06 1125.65 1106.44 1151.47 1093.51C1155.32 1091.59 1159.97 1093.15 1161.9 1096.96C1163.82 1100.78 1162.26 1105.46 1158.45 1107.39C1132.12 1120.61 1104.81 1132.44 1077.28 1142.61C1076.38 1142.94 1075.47 1143.12 1074.6 1143.12Z" fill="#E3EFFE"/>
<path d="M476.488 1123.15C475.435 1123.15 474.346 1122.93 473.329 1122.46C446.528 1110.44 420.055 1096.78 394.707 1081.86C391.003 1079.68 389.768 1074.92 391.947 1071.22C394.126 1067.51 398.883 1066.28 402.587 1068.46C427.463 1083.09 453.392 1096.49 479.684 1108.26C483.606 1110 485.349 1114.61 483.606 1118.53C482.299 1121.44 479.466 1123.15 476.488 1123.15Z" fill="#E3EFFE"/>
<path d="M1230.93 1064.64C1228.39 1064.64 1225.88 1063.41 1224.39 1061.12C1222.07 1057.53 1223.09 1052.73 1226.68 1050.37C1250.87 1034.65 1274.44 1017.43 1296.73 999.205C1300.04 996.481 1304.94 996.989 1307.66 1000.29C1310.39 1003.64 1309.88 1008.5 1306.57 1011.22C1283.84 1029.85 1259.8 1047.39 1235.18 1063.41C1233.84 1064.24 1232.38 1064.64 1230.93 1064.64Z" fill="#E3EFFE"/>
<path d="M325.672 1034.36C324.038 1034.36 322.44 1033.85 321.024 1032.8C297.492 1015.18 274.65 996.045 253.224 975.963C250.101 973.021 249.919 968.118 252.861 964.995C255.802 961.872 260.705 961.691 263.828 964.632C284.854 984.315 307.224 1003.09 330.321 1020.38C333.771 1022.95 334.461 1027.82 331.882 1031.23C330.393 1033.3 328.033 1034.36 325.672 1034.36Z" fill="#E3EFFE"/>
<path d="M1366.28 953.809C1364.32 953.809 1362.36 953.083 1360.83 951.594C1357.78 948.58 1357.71 943.678 1360.72 940.627C1380.91 920 1400.12 898.03 1417.92 875.369C1420.57 871.992 1425.43 871.411 1428.81 874.025C1432.19 876.676 1432.77 881.543 1430.12 884.92C1412 908.053 1392.39 930.423 1371.8 951.449C1370.31 953.047 1368.27 953.809 1366.28 953.809Z" fill="#E3EFFE"/>
<path d="M197.989 914.772C195.81 914.772 193.632 913.864 192.07 912.049C172.968 889.715 154.883 866.11 138.324 841.816C135.891 838.257 136.835 833.427 140.357 831.03C143.916 828.633 148.746 829.541 151.143 833.064C167.376 856.886 185.097 880.092 203.836 901.953C206.632 905.222 206.233 910.124 203.001 912.92C201.584 914.155 199.769 914.772 197.989 914.772Z" fill="#E3EFFE"/>
<path d="M1474.17 816.069C1472.79 816.069 1471.37 815.705 1470.1 814.907C1466.47 812.655 1465.34 807.861 1467.6 804.194C1482.78 779.681 1496.72 754.043 1509.1 728.005C1510.96 724.119 1515.57 722.485 1519.45 724.337C1523.34 726.153 1524.97 730.801 1523.12 734.687C1510.52 761.233 1496.28 787.38 1480.78 812.401C1479.29 814.761 1476.75 816.069 1474.17 816.069Z" fill="#E3EFFE"/>
<path d="M99.539 770.203C96.7428 770.203 94.0555 768.678 92.6755 766.063C78.9122 740.098 66.4561 713.043 55.6706 685.698C54.109 681.703 56.0337 677.2 60.0284 675.639C64.023 674.041 68.5261 676.002 70.1239 679.997C80.7279 706.797 92.9297 733.307 106.439 758.764C108.436 762.54 107.02 767.261 103.207 769.259C102.008 769.912 100.774 770.203 99.539 770.203Z" fill="#E3EFFE"/>
<path d="M1549.2 657.952C1548.36 657.952 1547.49 657.806 1546.65 657.516C1542.59 656.136 1540.44 651.706 1541.82 647.638C1551.23 620.402 1559.18 592.294 1565.46 564.15C1566.41 559.974 1570.55 557.323 1574.72 558.267C1578.9 559.211 1581.55 563.351 1580.61 567.527C1574.18 596.253 1566.05 624.905 1556.49 652.686C1555.44 655.954 1552.43 657.952 1549.2 657.952Z" fill="#E3EFFE"/>
<path d="M35.2619 607.475C31.8483 607.475 28.7252 605.187 27.781 601.737C20.1185 573.411 13.945 544.287 9.44194 515.199C8.78827 510.95 11.6935 506.991 15.9423 506.338C20.1548 505.72 24.1495 508.589 24.8032 512.838C29.2336 541.345 35.2619 569.889 42.7791 597.67C43.9048 601.81 41.4717 606.058 37.3318 607.184C36.6418 607.366 35.9518 607.475 35.2619 607.475Z" fill="#E3EFFE"/>
<path d="M1587.47 487.236C1587.18 487.236 1586.89 487.199 1586.6 487.199C1582.35 486.727 1579.26 482.914 1579.74 478.629C1582.86 450.049 1584.46 420.924 1584.46 392.018C1584.46 368.994 1583.44 345.789 1581.48 323.019C1581.12 318.734 1584.28 314.994 1588.56 314.594C1592.88 314.195 1596.59 317.391 1596.99 321.639C1599.02 344.881 1600.04 368.558 1600.04 392.018C1600.04 421.469 1598.4 451.175 1595.21 480.336C1594.73 484.294 1591.39 487.236 1587.47 487.236Z" fill="#E3EFFE"/>
<path d="M8.4977 434.579C4.35779 434.579 0.907874 431.31 0.762614 427.134C0.254205 415.477 0 403.638 0 391.981C0 374.223 0.581039 356.32 1.74312 338.707C2.03364 334.422 5.62882 331.117 9.98661 331.48C14.2718 331.771 17.5038 335.475 17.2133 339.76C16.0875 357.01 15.5065 374.586 15.5065 392.017C15.5065 403.457 15.7607 415.041 16.2328 426.517C16.4144 430.802 13.1097 434.433 8.82453 434.615C8.7519 434.579 8.64296 434.579 8.4977 434.579Z" fill="#E3EFFE"/>
<path d="M20.0458 260.051C19.6101 260.051 19.138 260.014 18.6659 259.942C14.4533 259.179 11.6208 255.148 12.3834 250.936C17.5401 221.993 24.3673 193.013 32.6834 164.833C33.8818 160.729 38.2033 158.369 42.3432 159.603C46.4468 160.838 48.8073 165.123 47.6089 169.263C39.438 196.899 32.7561 225.297 27.672 253.696C27.0183 257.4 23.75 260.051 20.0458 260.051Z" fill="#E3EFFE"/>
<path d="M1576.8 243.345C1573.16 243.345 1569.93 240.803 1569.17 237.098C1563.5 208.809 1556.2 180.592 1547.42 153.138C1546.11 149.035 1548.36 144.677 1552.46 143.37C1556.57 142.062 1560.93 144.314 1562.23 148.417C1571.17 176.416 1578.65 205.214 1584.42 234.048C1585.26 238.261 1582.53 242.364 1578.32 243.199C1577.81 243.308 1577.3 243.345 1576.8 243.345Z" fill="#E3EFFE"/>
<path d="M69.6519 92.239C68.635 92.239 67.6182 92.0212 66.6377 91.6217C62.6794 89.9512 60.8273 85.4118 62.4978 81.4535C73.9007 54.3625 86.9741 27.5984 101.355 1.92376C103.461 -1.81668 108.182 -3.16033 111.922 -1.05406C115.663 1.0522 117.007 5.77316 114.9 9.5136C100.81 34.6799 87.9909 60.8993 76.8059 87.4818C75.5712 90.4596 72.666 92.239 69.6519 92.239Z" fill="#E3EFFE"/>
<path d="M1523.59 76.6952C1520.62 76.6952 1517.78 74.9884 1516.51 72.0832C1504.75 45.7912 1491.38 19.8624 1476.78 -4.97706C1474.6 -8.68118 1475.84 -13.4384 1479.54 -15.6173C1483.21 -17.7962 1488 -16.5615 1490.18 -12.8574C1505.07 12.4904 1518.73 38.9277 1530.71 65.7645C1532.45 69.6865 1530.71 74.2621 1526.79 76.0415C1525.74 76.4773 1524.65 76.6952 1523.59 76.6952Z" fill="#E3EFFE"/>
<path d="M1339.88 864.621L1334.39 859.828C1447.8 730.365 1510.27 564.224 1510.27 392.019C1510.27 219.777 1447.8 53.636 1334.39 -75.7904L1339.88 -80.584C1454.45 50.1861 1517.57 218.034 1517.57 392.055C1517.57 566.004 1454.45 733.851 1339.88 864.621Z" fill="#E3EFFE"/>
<path d="M260.088 864.622C145.514 733.852 82.4351 566.004 82.4351 391.983C82.4351 217.962 145.55 50.1138 260.124 -80.6562L265.608 -75.8627C152.196 53.6001 89.7344 219.705 89.7344 391.946C89.7344 564.152 152.196 730.293 265.608 859.756L260.088 864.622Z" fill="#E3EFFE"/>
<path d="M799.982 869.996C536.408 869.996 322.005 655.556 322.005 392.018C322.005 128.444 536.445 -85.959 799.982 -85.959C1063.56 -85.959 1277.96 128.481 1277.96 392.018C1278 655.556 1063.56 869.996 799.982 869.996ZM799.982 -80.6207C539.386 -80.6207 327.343 131.386 327.343 392.018C327.343 652.614 539.35 864.657 799.982 864.657C1060.58 864.657 1272.62 652.651 1272.62 392.018C1272.62 131.386 1060.61 -80.6207 799.982 -80.6207Z" fill="#E3EFFE"/>
<path d="M879.729 391.982C879.729 436.032 844.032 471.729 799.982 471.729C755.932 471.729 720.234 436.032 720.234 391.982C720.234 347.932 755.932 312.234 799.982 312.234C844.032 312.234 879.729 347.932 879.729 391.982Z" fill="#E3EFFE"/>
<path d="M799.982 602.245C684.065 602.245 589.755 507.935 589.755 392.018C589.755 276.101 684.065 181.791 799.982 181.791C915.899 181.791 1010.21 276.101 1010.21 392.018C1010.25 507.899 915.936 602.245 799.982 602.245ZM799.982 189.635C688.386 189.635 597.635 280.422 597.635 391.982C597.635 503.578 688.423 594.329 799.982 594.329C911.578 594.329 1002.37 503.541 1002.37 391.982C1002.37 280.386 911.578 189.635 799.982 189.635Z" fill="#E3EFFE"/>
<path d="M803.649 16.5215H799.981V765.917H803.649V16.5215Z" fill="#E3EFFE"/>
<path d="M1174.72 387.551H425.32V391.981H1174.72V387.551Z" fill="#E3EFFE"/>
</g>
<defs>
<clipPath id="clip0_370_3812">
<rect width="1600" height="1600" fill="white" transform="translate(0 -408)"/>
</clipPath>
</defs>
</svg>
