<svg width="256" height="60" viewBox="0 0 256 60" fill="none" xmlns="http://www.w3.org/2000/svg">
<g clip-path="url(#clip0_370_4097)">
<mask id="mask0_370_4097" style="mask-type:luminance" maskUnits="userSpaceOnUse" x="0" y="0" width="256" height="60">
<path d="M255.046 0H0V60H255.046V0Z" fill="white"/>
</mask>
<g mask="url(#mask0_370_4097)">
<path d="M89.0526 23.8216H82.4322L81.2953 31.0216H80.2922L82.7888 15.195H91.683L91.5492 16.1089H83.6582L82.5882 22.8854H89.2086L89.0526 23.8216ZM95.9266 31.2891C94.0542 31.2891 92.8282 30.1746 92.8282 28.4804C92.8282 26.3628 94.5 24.9807 97.3309 24.7578L100.964 24.468L101.031 24.1337C101.432 22.1052 100.474 20.9684 98.3786 20.9684C96.417 20.9684 95.2802 21.8154 94.9904 23.4872H93.9873C94.3216 21.325 95.9712 20.0544 98.4009 20.0544C101.009 20.0544 102.436 21.5479 102.057 23.9108L100.942 31.0216H100.117L100.273 29.0154C99.3594 30.442 97.7322 31.2891 95.9266 31.2891ZM96.1495 30.3975C98.5569 30.3975 100.34 28.6588 100.764 25.8947L100.853 25.3151L97.2641 25.6049C95.0795 25.7832 93.809 26.8532 93.809 28.4804C93.809 29.6396 94.7229 30.3975 96.1495 30.3975ZM106.38 26.5411C106.38 22.8854 108.832 20.0544 111.997 20.0544C114.226 20.0544 115.675 21.2804 115.987 23.4427H114.984C114.784 21.9046 113.647 20.9461 111.997 20.9461C109.389 20.9461 107.361 23.3981 107.361 26.5411C107.361 28.8371 108.765 30.3975 110.816 30.3975C112.532 30.3975 113.959 29.4389 114.516 27.9232H115.542C114.828 30.0185 113.023 31.2891 110.816 31.2891C108.23 31.2891 106.38 29.3052 106.38 26.5411ZM124.104 31.2891C121.518 31.2891 119.668 29.3052 119.668 26.5411C119.668 22.8854 122.12 20.0544 125.285 20.0544C128.116 20.0544 129.832 22.2167 129.387 24.9807L129.275 25.6718H120.693C120.671 25.9615 120.648 26.2513 120.648 26.5411C120.648 28.8371 122.053 30.3975 124.104 30.3975C125.82 30.3975 127.336 29.4835 127.893 27.9677H128.896C128.183 30.0631 126.31 31.2891 124.104 31.2891ZM125.285 20.9461C123.167 20.9461 121.429 22.5733 120.849 24.8693H128.406C128.785 22.5064 127.447 20.9461 125.285 20.9461ZM134.02 31.0216H133.196L135.737 14.9275H136.695L135.469 22.6625C136.517 20.9015 137.944 20.0544 139.794 20.0544C142.29 20.0544 144.007 21.9492 144.007 24.6687C144.007 28.4136 141.533 31.2891 138.3 31.2891C136.361 31.2891 134.979 30.3083 134.533 28.6142L134.02 31.0216ZM134.934 26.7863C134.934 29.1046 136.138 30.3975 138.323 30.3975C140.998 30.3975 143.026 27.9232 143.026 24.6687C143.026 22.395 141.733 20.9461 139.705 20.9461C137.007 20.9461 134.934 23.4872 134.934 26.7863ZM147.832 26.4297C147.832 22.93 150.551 20.0544 153.828 20.0544C156.525 20.0544 158.375 22.0383 158.375 24.9139C158.375 28.4136 155.656 31.2891 152.379 31.2891C149.682 31.2891 147.832 29.3052 147.832 26.4297ZM148.813 26.4297C148.813 28.8817 150.239 30.3975 152.513 30.3975C155.188 30.3975 157.395 27.9232 157.395 24.9139C157.395 22.4619 155.968 20.9461 153.694 20.9461C151.019 20.9461 148.813 23.4204 148.813 26.4297ZM162.208 26.4297C162.208 22.93 164.927 20.0544 168.204 20.0544C170.901 20.0544 172.751 22.0383 172.751 24.9139C172.751 28.4136 170.032 31.2891 166.755 31.2891C164.058 31.2891 162.208 29.3052 162.208 26.4297ZM163.188 26.4297C163.188 28.8817 164.615 30.3975 166.889 30.3975C169.564 30.3975 171.771 27.9232 171.771 24.9139C171.771 22.4619 170.344 20.9461 168.07 20.9461C165.395 20.9461 163.188 23.4204 163.188 26.4297ZM177.676 31.0216H176.717L179.259 14.9275H180.217L178.412 26.3182L185.077 20.3219H186.347L181.621 24.6018L184.698 31.0216H183.65L180.908 25.2259L178.211 27.6557L177.676 31.0216Z" fill="#0D0D0D"/>
<path d="M95.4131 54.7991H91.6943V37.375H95.4131V54.7991ZM84.2565 54.7991H80.5376V37.375H84.2565V54.7991ZM93.2286 47.6474H82.228V44.3447H93.2286V47.6474ZM101.568 40.5478H97.8495V37.375H101.568V40.5478ZM101.568 54.7991H97.8495V42.0561H101.568V54.7991ZM108.308 55.0852C107.268 55.0852 106.366 54.8252 105.603 54.305C104.858 53.7849 104.277 53.0307 103.861 52.0425C103.462 51.037 103.263 49.832 103.263 48.4276C103.263 47.0233 103.462 45.827 103.861 44.8388C104.26 43.8505 104.823 43.0964 105.551 42.5762C106.297 42.0561 107.163 41.7961 108.152 41.7961C109.14 41.7961 109.92 42.0214 110.492 42.4722C111.082 42.9056 111.507 43.4777 111.767 44.1886C112.044 44.8995 112.226 45.645 112.313 46.4252L112.209 47.7515C112.209 47.058 112.113 46.4859 111.923 46.0351C111.732 45.5842 111.455 45.2461 111.09 45.0208C110.726 44.7955 110.275 44.6827 109.738 44.6827C108.923 44.6827 108.264 45.0035 107.762 45.645C107.276 46.2864 107.033 47.2141 107.033 48.4276C107.033 49.6412 107.285 50.5689 107.788 51.2103C108.29 51.8517 108.958 52.1725 109.79 52.1725C110.31 52.1725 110.752 52.0685 111.116 51.8604C111.481 51.6351 111.749 51.297 111.923 50.8462C112.113 50.3954 112.209 49.8232 112.209 49.1298L112.313 50.4561C112.226 51.2363 112.061 51.9818 111.819 52.6926C111.576 53.3861 111.177 53.9582 110.622 54.4091C110.067 54.8599 109.296 55.0852 108.308 55.0852ZM115.928 54.7991H112.209V37.375H115.928V54.7991ZM122.625 55.0852C121.585 55.0852 120.684 54.8252 119.921 54.305C119.175 53.7849 118.595 53.0307 118.178 52.0425C117.78 51.037 117.58 49.832 117.58 48.4276C117.58 47.0233 117.78 45.827 118.178 44.8388C118.577 43.8505 119.141 43.0964 119.869 42.5762C120.614 42.0561 121.481 41.7961 122.469 41.7961C123.458 41.7961 124.238 42.0214 124.81 42.4722C125.399 42.9056 125.824 43.4777 126.084 44.1886C126.362 44.8995 126.544 45.645 126.63 46.4252L126.526 47.7515C126.526 47.058 126.431 46.4859 126.24 46.0351C126.05 45.5842 125.772 45.2461 125.408 45.0208C125.044 44.7955 124.593 44.6827 124.056 44.6827C123.241 44.6827 122.582 45.0035 122.079 45.645C121.594 46.2864 121.351 47.2141 121.351 48.4276C121.351 49.6412 121.602 50.5689 122.105 51.2103C122.608 51.8517 123.276 52.1725 124.108 52.1725C124.628 52.1725 125.07 52.0685 125.434 51.8604C125.798 51.6351 126.067 51.297 126.24 50.8462C126.431 50.3954 126.526 49.8232 126.526 49.1298L126.63 50.4561C126.544 51.2363 126.379 51.9818 126.136 52.6926C125.894 53.3861 125.495 53.9582 124.94 54.4091C124.385 54.8599 123.614 55.0852 122.625 55.0852ZM130.245 54.7991H126.526V37.375H130.245V54.7991ZM138.529 55.0592C137.177 55.0592 136.007 54.7819 135.019 54.227C134.048 53.6722 133.302 52.892 132.782 51.8865C132.262 50.8809 132.002 49.7279 132.002 48.4276C132.002 47.11 132.262 45.957 132.782 44.9688C133.302 43.9633 134.03 43.1831 134.967 42.6283C135.903 42.0734 136.986 41.7961 138.217 41.7961C139.57 41.7961 140.697 42.0648 141.598 42.6022C142.5 43.1396 143.176 43.8678 143.627 44.7868C144.077 45.7057 144.303 46.72 144.303 47.8295C144.303 48.1068 144.285 48.4016 144.251 48.7137C144.233 49.0085 144.207 49.2338 144.173 49.3899H134.654V47.2574H141.572L140.974 47.7515C140.974 46.746 140.749 45.9831 140.298 45.4629C139.847 44.9255 139.162 44.6567 138.243 44.6567C137.376 44.6567 136.692 44.9255 136.189 45.4629C135.703 45.9831 135.461 46.772 135.461 47.8295V48.7917C135.461 49.5372 135.591 50.1528 135.851 50.6382C136.111 51.1063 136.475 51.4616 136.943 51.7044C137.428 51.9297 137.975 52.0425 138.581 52.0425C139.188 52.0425 139.7 51.9645 140.116 51.8084C140.532 51.6524 140.879 51.4356 141.156 51.1583C141.433 50.8635 141.65 50.5341 141.806 50.17L144.069 52.4326C143.601 53.1087 142.916 53.7156 142.014 54.253C141.13 54.7904 139.968 55.0592 138.529 55.0592ZM158.065 54.7991H154.347V47.2053C154.347 46.4252 154.208 45.8097 153.93 45.3589C153.67 44.9081 153.107 44.6827 152.24 44.6827C151.65 44.6827 151.182 44.7955 150.836 45.0208C150.506 45.2461 150.264 45.5842 150.108 46.0351C149.969 46.4859 149.899 47.058 149.899 47.7515L149.795 46.4252C149.882 45.645 150.081 44.8995 150.394 44.1886C150.706 43.4777 151.165 42.9056 151.772 42.4722C152.396 42.0214 153.194 41.7961 154.164 41.7961C155.378 41.7961 156.332 42.1514 157.025 42.8623C157.719 43.5732 158.065 44.5874 158.065 45.905V54.7991ZM149.899 54.7991H146.181V42.0561H149.899V54.7991ZM168.886 54.7991H165.168V37.375H168.886V54.7991ZM183.418 54.7991H179.699V47.2053C179.699 46.4252 179.561 45.8097 179.283 45.3589C179.023 44.9081 178.46 44.6827 177.593 44.6827C177.003 44.6827 176.535 44.7955 176.189 45.0208C175.859 45.2461 175.616 45.5842 175.46 46.0351C175.322 46.4859 175.252 47.058 175.252 47.7515L175.148 46.4252C175.235 45.645 175.434 44.8995 175.746 44.1886C176.059 43.4777 176.518 42.9056 177.125 42.4722C177.749 42.0214 178.546 41.7961 179.517 41.7961C180.731 41.7961 181.685 42.1514 182.378 42.8623C183.071 43.5732 183.418 44.5874 183.418 45.905V54.7991ZM175.252 54.7991H171.533V42.0561H175.252V54.7991ZM190.44 55.0592C189.504 55.0592 188.723 54.8859 188.099 54.5391C187.492 54.1923 187.04 53.7156 186.747 53.1087C186.452 52.5019 186.305 51.8084 186.305 51.0283V40.5478L190.024 38.5973V50.3521C190.024 50.8722 190.135 51.2363 190.362 51.4444C190.603 51.6524 190.908 51.7564 191.272 51.7564C191.669 51.7564 192.034 51.6264 192.364 51.3663C192.71 51.089 192.979 50.7682 193.17 50.4041L194.237 53.4468C193.958 53.7936 193.499 54.149 192.858 54.5131C192.216 54.8772 191.409 55.0592 190.44 55.0592ZM193.561 44.8908H184.406V42.0561H193.561V44.8908ZM200.842 55.0592C199.49 55.0592 198.32 54.7819 197.331 54.227C196.36 53.6722 195.615 52.892 195.095 51.8865C194.575 50.8809 194.315 49.7279 194.315 48.4276C194.315 47.11 194.575 45.957 195.095 44.9688C195.615 43.9633 196.343 43.1831 197.279 42.6283C198.216 42.0734 199.299 41.7961 200.53 41.7961C201.882 41.7961 203.008 42.0648 203.911 42.6022C204.812 43.1396 205.488 43.8678 205.939 44.7868C206.389 45.7057 206.616 46.72 206.616 47.8295C206.616 48.1068 206.597 48.4016 206.564 48.7137C206.545 49.0085 206.519 49.2338 206.486 49.3899H196.967V47.2574H203.885L203.287 47.7515C203.287 46.746 203.06 45.9831 202.611 45.4629C202.159 44.9255 201.474 44.6567 200.556 44.6567C199.689 44.6567 199.003 44.9255 198.502 45.4629C198.015 45.9831 197.774 46.772 197.774 47.8295V48.7917C197.774 49.5372 197.904 50.1528 198.164 50.6382C198.424 51.1063 198.788 51.4616 199.256 51.7044C199.741 51.9297 200.287 52.0425 200.894 52.0425C201.5 52.0425 202.013 51.9645 202.429 51.8084C202.845 51.6524 203.19 51.4356 203.469 51.1583C203.746 50.8635 203.963 50.5341 204.119 50.17L206.382 52.4326C205.913 53.1087 205.228 53.7156 204.327 54.253C203.443 54.7904 202.28 55.0592 200.842 55.0592ZM212.213 54.7991H208.494V42.0561H212.213V54.7991ZM212.213 48.0635L212.108 46.7372C212.177 46.1478 212.307 45.567 212.499 44.9948C212.688 44.4054 212.948 43.8678 213.279 43.3824C213.624 42.897 214.05 42.5155 214.553 42.2382C215.055 41.9434 215.645 41.7961 216.322 41.7961C217.274 41.7961 217.993 42.0821 218.48 42.6543C218.982 43.2091 219.234 43.9893 219.234 44.9948C219.234 45.671 219.147 46.2779 218.974 46.8152C218.818 47.3354 218.662 47.7167 218.506 47.9595H214.917C215.159 47.7167 215.367 47.3961 215.541 46.9973C215.731 46.5985 215.827 46.2171 215.827 45.853C215.827 45.4889 215.74 45.1856 215.567 44.9428C215.393 44.7 215.099 44.5787 214.683 44.5787C214.267 44.5787 213.868 44.726 213.487 45.0208C213.104 45.2982 212.792 45.697 212.551 46.2171C212.324 46.7372 212.213 47.3526 212.213 48.0635ZM226.276 55.0592C224.924 55.0592 223.754 54.7819 222.765 54.227C221.796 53.6722 221.049 52.892 220.529 51.8865C220.009 50.8809 219.749 49.7279 219.749 48.4276C219.749 47.11 220.009 45.957 220.529 44.9688C221.049 43.9633 221.777 43.1831 222.713 42.6283C223.65 42.0734 224.734 41.7961 225.964 41.7961C227.317 41.7961 228.444 42.0648 229.345 42.6022C230.248 43.1396 230.924 43.8678 231.374 44.7868C231.825 45.7057 232.05 46.72 232.05 47.8295C232.05 48.1068 232.033 48.4016 231.998 48.7137C231.981 49.0085 231.955 49.2338 231.92 49.3899H222.401V47.2574H229.319L228.721 47.7515C228.721 46.746 228.496 45.9831 228.045 45.4629C227.595 44.9255 226.91 44.6567 225.99 44.6567C225.125 44.6567 224.439 44.9255 223.936 45.4629C223.451 45.9831 223.208 46.772 223.208 47.8295V48.7917C223.208 49.5372 223.338 50.1528 223.598 50.6382C223.858 51.1063 224.222 51.4616 224.69 51.7044C225.177 51.9297 225.723 52.0425 226.328 52.0425C226.936 52.0425 227.447 51.9645 227.863 51.8084C228.279 51.6524 228.626 51.4356 228.903 51.1583C229.182 50.8635 229.397 50.5341 229.553 50.17L231.816 52.4326C231.348 53.1087 230.664 53.7156 229.761 54.253C228.877 54.7904 227.716 55.0592 226.276 55.0592ZM239.343 55.0592C238.406 55.0592 237.515 54.9552 236.664 54.7471C235.815 54.5218 235.07 54.2183 234.427 53.8369C233.787 53.4381 233.276 52.9874 232.893 52.4846L234.609 49.962C234.974 50.3261 235.408 50.6902 235.91 51.0543C236.43 51.4011 236.985 51.6871 237.574 51.9125C238.182 52.1205 238.806 52.2245 239.447 52.2245C239.95 52.2245 240.34 52.1465 240.617 51.9905C240.912 51.8172 241.059 51.5657 241.059 51.2363C241.059 50.907 240.877 50.6554 240.513 50.4821C240.167 50.3088 239.655 50.1353 238.978 49.962L237.262 49.5459C236.5 49.3378 235.815 49.0865 235.208 48.7917C234.619 48.4969 234.151 48.1156 233.803 47.6474C233.474 47.1621 233.309 46.5465 233.309 45.801C233.309 44.5354 233.777 43.5557 234.713 42.8623C235.65 42.1689 236.898 41.8221 238.458 41.8221C239.846 41.8221 241.016 42.0734 241.969 42.5762C242.941 43.0616 243.652 43.5818 244.102 44.1366L242.437 46.6332C241.813 45.9918 241.13 45.4977 240.383 45.1509C239.638 44.804 238.893 44.6307 238.146 44.6307C237.697 44.6307 237.34 44.7175 237.08 44.8908C236.82 45.0468 236.69 45.2809 236.69 45.593C236.69 45.9223 236.846 46.1824 237.158 46.3731C237.489 46.5639 238.078 46.772 238.926 46.9973L240.357 47.3874C241.761 47.7687 242.785 48.2543 243.426 48.8437C244.068 49.4331 244.388 50.2133 244.388 51.1843C244.388 51.9992 244.172 52.7014 243.738 53.2908C243.305 53.8629 242.716 54.305 241.969 54.6171C241.224 54.9119 240.349 55.0592 239.343 55.0592ZM250.852 55.0592C249.916 55.0592 249.136 54.8859 248.512 54.5391C247.906 54.1923 247.455 53.7156 247.159 53.1087C246.866 52.5019 246.717 51.8084 246.717 51.0283V40.5478L250.436 38.5973V50.3521C250.436 50.8722 250.549 51.2363 250.774 51.4444C251.017 51.6524 251.32 51.7564 251.684 51.7564C252.084 51.7564 252.448 51.6264 252.777 51.3663C253.124 51.089 253.393 50.7682 253.583 50.4041L254.649 53.4468C254.372 53.7936 253.913 54.149 253.271 54.5131C252.63 54.8772 251.824 55.0592 250.852 55.0592ZM253.973 44.8908H244.819V42.0561H253.973V44.8908Z" fill="#1958D9"/>
<path d="M42.1672 17.9649L20.82 54.7988H0L31.7537 0L42.1672 17.9649Z" fill="#0F47F2"/>
<path d="M72.8175 59.8139H17.833L20.7167 54.8213H63.4388L42.0777 17.8791L45.3219 12.2598L72.8175 59.8139Z" fill="#1958D9"/>
</g>
</g>
<defs>
<clipPath id="clip0_370_4097">
<rect width="255.046" height="60" fill="white"/>
</clipPath>
</defs>
</svg>
