<svg width="287" height="60" viewBox="0 0 287 60" fill="none" xmlns="http://www.w3.org/2000/svg">
<g clip-path="url(#clip0_407_3118)">
<mask id="mask0_407_3118" style="mask-type:luminance" maskUnits="userSpaceOnUse" x="0" y="0" width="287" height="60">
<path d="M286.211 0H0V60H286.211V0Z" fill="white"/>
</mask>
<g mask="url(#mask0_407_3118)">
<path d="M89.3292 23.8956H82.6882L81.5478 31.118H80.5416L83.046 15.2422H91.9677L91.8336 16.159H83.918L82.8447 22.9565H89.4857L89.3292 23.8956ZM96.8963 17.0757C96.4491 17.0757 96.1137 16.7403 96.1137 16.3155C96.1137 15.7341 96.5832 15.2198 97.1423 15.2198C97.5895 15.2198 97.9249 15.5552 97.9249 15.9801C97.9249 16.5615 97.4553 17.0757 96.8963 17.0757ZM94.1907 31.118L95.8901 20.3851H96.8516L95.1522 31.118H94.1907ZM101.755 31.118H100.794L102.493 20.3851H103.253L103.119 22.5316C104.126 20.9217 105.445 20.1167 107.189 20.1167C109.671 20.1167 111.057 21.8832 110.632 24.5888L109.604 31.118H108.642L109.649 24.79C110.051 22.308 109.134 21.0111 107.077 21.0111C104.774 21.0111 103.075 22.8 102.627 25.595L101.755 31.118ZM119.287 31.3863C116.782 31.3863 115.061 29.4857 115.061 26.7577C115.061 23.0012 117.543 20.1167 120.785 20.1167C122.73 20.1167 124.117 21.1006 124.564 22.8L125.794 14.9739H126.755L124.206 31.118H123.379L123.625 28.7701C122.574 30.5366 121.143 31.3863 119.287 31.3863ZM119.376 30.4919C122.082 30.4919 124.161 27.9428 124.161 24.6335C124.161 22.308 122.954 21.0111 120.762 21.0111C118.079 21.0111 116.044 23.4931 116.044 26.7577C116.044 29.0385 117.341 30.4919 119.376 30.4919Z" fill="#004763"/>
<path d="M84.518 54.969H80.7876V37.4907H84.518V54.969ZM91.9528 48.4472H82.0919V45.1342H91.9528V48.4472ZM93.4397 40.8038H82.0919V37.4907H93.4397V40.8038ZM105.714 54.969H103.523C103.071 54.969 102.645 54.8907 102.245 54.7342C101.845 54.5777 101.514 54.3256 101.254 53.9777C101.01 53.6125 100.888 53.1256 100.888 52.5168V48.1081L100.993 47.5864C100.993 46.8038 100.862 46.195 100.601 45.7603C100.34 45.3256 99.7753 45.1081 98.9057 45.1081C98.0884 45.1081 97.3319 45.3168 96.6361 45.7342C95.9406 46.1343 95.3666 46.656 94.9144 47.2994L93.0361 44.5864C93.4535 44.1168 93.9667 43.6821 94.5753 43.282C95.184 42.882 95.871 42.5604 96.6361 42.3168C97.4188 42.0559 98.2623 41.9255 99.1666 41.9255C100.784 41.9255 102.036 42.3517 102.923 43.2038C103.828 44.0385 104.28 45.2559 104.28 46.8559V51.2386C104.28 51.5167 104.332 51.7169 104.436 51.8386C104.558 51.9429 104.732 51.9951 104.958 51.9951H105.714V54.969ZM96.7405 55.2559C95.7492 55.2559 94.9405 54.9951 94.3144 54.4733C93.6883 53.9343 93.3753 53.1517 93.3753 52.1255C93.3753 51.1515 93.6797 50.3689 94.2883 49.7777C94.9144 49.1689 95.8274 48.6559 97.0274 48.2386L101.28 46.6472L101.619 48.8646L98.1753 50.2994C97.6711 50.5081 97.3144 50.7168 97.1057 50.9255C96.9145 51.1169 96.8187 51.3341 96.8187 51.5777C96.8187 51.8734 96.9231 52.1082 97.1318 52.282C97.358 52.4385 97.6884 52.5168 98.1231 52.5168C98.558 52.5168 98.9493 52.4646 99.297 52.3603C99.6449 52.2386 99.9319 52.0733 100.158 51.8646C100.401 51.6559 100.584 51.4038 100.706 51.1081C100.828 50.8124 100.888 50.4647 100.888 50.0646L100.967 51.3168C100.845 51.8907 100.627 52.482 100.314 53.0907C100.019 53.682 99.5754 54.1951 98.984 54.6299C98.4101 55.0472 97.6623 55.2559 96.7405 55.2559ZM112.983 55.2299C111.679 55.2299 110.548 54.9517 109.592 54.3951C108.635 53.8212 107.887 53.0298 107.348 52.0212C106.826 51.0125 106.566 49.8647 106.566 48.5777C106.566 47.2733 106.826 46.1255 107.348 45.1342C107.887 44.1256 108.635 43.343 109.592 42.7864C110.548 42.2125 111.679 41.9255 112.983 41.9255C114.513 41.9255 115.792 42.2995 116.818 43.0472C117.844 43.7777 118.548 44.6907 118.931 45.7864L115.826 47.5864C115.687 46.8038 115.4 46.1864 114.966 45.7342C114.531 45.2646 113.913 45.0299 113.113 45.0299C112.574 45.0299 112.096 45.169 111.679 45.4472C111.261 45.7081 110.939 46.0994 110.713 46.6212C110.487 47.1429 110.374 47.7951 110.374 48.5777C110.374 49.3603 110.487 50.0212 110.713 50.5603C110.939 51.082 111.261 51.4733 111.679 51.7342C112.096 51.9951 112.574 52.1255 113.113 52.1255C113.913 52.1255 114.531 51.8995 114.966 51.4472C115.4 50.995 115.687 50.3689 115.826 49.569L118.931 51.369C118.548 52.4646 117.844 53.3864 116.818 54.1342C115.792 54.8646 114.513 55.2299 112.983 55.2299ZM126.075 55.2299C124.718 55.2299 123.544 54.9517 122.553 54.3951C121.579 53.8385 120.831 53.0559 120.31 52.0472C119.788 51.0386 119.527 49.882 119.527 48.5777C119.527 47.256 119.788 46.0994 120.31 45.1081C120.831 44.0995 121.562 43.3169 122.501 42.7603C123.44 42.2037 124.527 41.9255 125.762 41.9255C127.118 41.9255 128.249 42.1951 129.153 42.7342C130.058 43.2733 130.736 44.0037 131.188 44.9255C131.64 45.8473 131.866 46.8647 131.866 47.9777C131.866 48.2559 131.849 48.5516 131.814 48.8646C131.797 49.1603 131.771 49.3864 131.736 49.5429H122.188V47.4038H129.127L128.527 47.8994C128.527 46.8908 128.301 46.1255 127.849 45.6038C127.397 45.0647 126.71 44.7951 125.788 44.7951C124.919 44.7951 124.231 45.0647 123.727 45.6038C123.24 46.1255 122.997 46.9169 122.997 47.9777V48.9429C122.997 49.6907 123.127 50.3082 123.388 50.7951C123.649 51.2646 124.014 51.6211 124.484 51.8646C124.971 52.0907 125.519 52.2038 126.127 52.2038C126.736 52.2038 127.249 52.1255 127.666 51.969C128.084 51.8125 128.431 51.595 128.71 51.3168C128.988 51.0211 129.205 50.6907 129.362 50.3255L131.631 52.5951C131.162 53.2733 130.475 53.8821 129.571 54.4212C128.684 54.9602 127.518 55.2299 126.075 55.2299ZM141.444 55.2559C140.453 55.2559 139.679 55.0299 139.122 54.5777C138.566 54.1254 138.166 53.5515 137.922 52.8559C137.679 52.1428 137.514 51.3951 137.427 50.6125L137.531 49.282C137.531 49.9776 137.618 50.5515 137.792 51.0038C137.983 51.456 138.262 51.7951 138.627 52.0212C138.992 52.2299 139.436 52.3342 139.957 52.3342C140.809 52.3342 141.479 52.0124 141.966 51.369C142.47 50.7256 142.722 49.795 142.722 48.5777C142.722 47.3604 142.47 46.4298 141.966 45.7864C141.479 45.143 140.809 44.8212 139.957 44.8212C139.436 44.8212 138.992 44.9343 138.627 45.1603C138.262 45.3863 137.983 45.7254 137.792 46.1777C137.618 46.6299 137.531 47.2038 137.531 47.8994L137.427 46.569C137.514 45.7864 137.688 45.0386 137.949 44.3255C138.227 43.6124 138.653 43.0385 139.227 42.6038C139.818 42.1515 140.609 41.9255 141.601 41.9255C142.592 41.9255 143.453 42.1864 144.183 42.7081C144.931 43.2299 145.505 43.9864 145.905 44.9777C146.322 45.969 146.531 47.169 146.531 48.5777C146.531 49.9864 146.322 51.1951 145.905 52.2038C145.488 53.1951 144.896 53.9516 144.131 54.4733C143.383 54.9951 142.488 55.2559 141.444 55.2559ZM137.531 54.969H133.801V37.4907H137.531V54.969ZM154.233 55.2299C152.946 55.2299 151.816 54.9517 150.842 54.3951C149.885 53.8212 149.146 53.0298 148.624 52.0212C148.103 51.0125 147.842 49.8647 147.842 48.5777C147.842 47.2733 148.103 46.1255 148.624 45.1342C149.146 44.1256 149.885 43.343 150.842 42.7864C151.816 42.2125 152.946 41.9255 154.233 41.9255C155.555 41.9255 156.703 42.2125 157.677 42.7864C158.668 43.343 159.424 44.1256 159.946 45.1342C160.485 46.1255 160.755 47.2733 160.755 48.5777C160.755 49.8647 160.485 51.0125 159.946 52.0212C159.424 53.0298 158.668 53.8212 157.677 54.3951C156.703 54.9517 155.555 55.2299 154.233 55.2299ZM154.285 52.2038C154.824 52.2038 155.294 52.0821 155.694 51.8386C156.094 51.595 156.407 51.2125 156.633 50.6907C156.859 50.1517 156.972 49.4473 156.972 48.5777C156.972 47.7081 156.859 47.0125 156.633 46.4907C156.407 45.9517 156.094 45.5603 155.694 45.3168C155.294 45.0733 154.824 44.9516 154.285 44.9516C153.764 44.9516 153.303 45.0733 152.903 45.3168C152.503 45.5603 152.19 45.9517 151.964 46.4907C151.738 47.0125 151.624 47.7081 151.624 48.5777C151.624 49.4473 151.738 50.1517 151.964 50.6907C152.19 51.2125 152.503 51.595 152.903 51.8386C153.303 52.0821 153.764 52.2038 154.285 52.2038ZM168.544 55.2299C167.257 55.2299 166.127 54.9517 165.153 54.3951C164.197 53.8212 163.457 53.0298 162.936 52.0212C162.414 51.0125 162.153 49.8647 162.153 48.5777C162.153 47.2733 162.414 46.1255 162.936 45.1342C163.457 44.1256 164.197 43.343 165.153 42.7864C166.127 42.2125 167.257 41.9255 168.544 41.9255C169.866 41.9255 171.014 42.2125 171.988 42.7864C172.979 43.343 173.736 44.1256 174.257 45.1342C174.796 46.1255 175.066 47.2733 175.066 48.5777C175.066 49.8647 174.796 51.0125 174.257 52.0212C173.736 53.0298 172.979 53.8212 171.988 54.3951C171.014 54.9517 169.866 55.2299 168.544 55.2299ZM168.596 52.2038C169.136 52.2038 169.605 52.0821 170.005 51.8386C170.405 51.595 170.718 51.2125 170.944 50.6907C171.17 50.1517 171.283 49.4473 171.283 48.5777C171.283 47.7081 171.17 47.0125 170.944 46.4907C170.718 45.9517 170.405 45.5603 170.005 45.3168C169.605 45.0733 169.136 44.9516 168.596 44.9516C168.075 44.9516 167.614 45.0733 167.214 45.3168C166.814 45.5603 166.501 45.9517 166.275 46.4907C166.049 47.0125 165.936 47.7081 165.936 48.5777C165.936 49.4473 166.049 50.1517 166.275 50.6907C166.501 51.2125 166.814 51.595 167.214 51.8386C167.614 52.0821 168.075 52.2038 168.596 52.2038ZM180.643 54.969H176.912V37.4907H180.643V44.4299L180.46 47.769L182.808 44.9516L185.495 42.1864H189.904L183.434 48.7864L182.991 48.8907L180.643 51.3429V54.969ZM189.878 54.969H185.625L181.712 48.3429L184.608 46.8559L189.878 54.969ZM199.765 54.969H196.034V37.4907H199.765V54.969ZM214.342 54.969H210.611V47.3516C210.611 46.569 210.473 45.9517 210.194 45.4994C209.933 45.0472 209.368 44.8212 208.498 44.8212C207.907 44.8212 207.438 44.9343 207.089 45.1603C206.76 45.3863 206.516 45.7254 206.359 46.1777C206.221 46.6299 206.15 47.2038 206.15 47.8994L206.046 46.569C206.134 45.7864 206.333 45.0386 206.646 44.3255C206.959 43.6124 207.421 43.0385 208.029 42.6038C208.655 42.1515 209.456 41.9255 210.429 41.9255C211.647 41.9255 212.603 42.282 213.298 42.9951C213.995 43.7082 214.342 44.7256 214.342 46.0472V54.969ZM206.15 54.969H202.42V42.1864H206.15V54.969ZM221.385 55.2299C220.446 55.2299 219.663 55.056 219.037 54.7081C218.428 54.3602 217.977 53.8821 217.681 53.2733C217.384 52.6646 217.237 51.969 217.237 51.1864V40.6733L220.968 38.7168V50.5081C220.968 51.0299 221.081 51.3951 221.307 51.6038C221.551 51.8125 221.855 51.9168 222.22 51.9168C222.62 51.9168 222.986 51.7864 223.316 51.5255C223.664 51.2473 223.932 50.9255 224.124 50.5603L225.194 53.6125C224.916 53.9604 224.454 54.3168 223.811 54.682C223.168 55.0472 222.36 55.2299 221.385 55.2299ZM224.516 45.0299H215.333V42.1864H224.516V45.0299ZM231.82 55.2299C230.463 55.2299 229.289 54.9517 228.298 54.3951C227.324 53.8385 226.576 53.0559 226.055 52.0472C225.533 51.0386 225.272 49.882 225.272 48.5777C225.272 47.256 225.533 46.0994 226.055 45.1081C226.576 44.0995 227.307 43.3169 228.246 42.7603C229.185 42.2037 230.271 41.9255 231.507 41.9255C232.863 41.9255 233.994 42.1951 234.898 42.7342C235.802 43.2733 236.48 44.0037 236.933 44.9255C237.386 45.8473 237.611 46.8647 237.611 47.9777C237.611 48.2559 237.594 48.5516 237.559 48.8646C237.542 49.1603 237.516 49.3864 237.481 49.5429H227.933V47.4038H234.872L234.272 47.8994C234.272 46.8908 234.047 46.1255 233.594 45.6038C233.141 45.0647 232.455 44.7951 231.533 44.7951C230.663 44.7951 229.977 45.0647 229.472 45.6038C228.986 46.1255 228.742 46.9169 228.742 47.9777V48.9429C228.742 49.6907 228.872 50.3082 229.133 50.7951C229.394 51.2646 229.759 51.6211 230.229 51.8646C230.715 52.0907 231.263 52.2038 231.872 52.2038C232.481 52.2038 232.994 52.1255 233.411 51.969C233.829 51.8125 234.177 51.595 234.455 51.3168C234.732 51.0211 234.95 50.6907 235.107 50.3255L237.376 52.5951C236.907 53.2733 236.219 53.8821 235.316 54.4212C234.429 54.9602 233.264 55.2299 231.82 55.2299ZM243.225 54.969H239.495V42.1864H243.225V54.969ZM243.225 48.2125L243.121 46.882C243.19 46.2908 243.32 45.7081 243.512 45.1342C243.702 44.543 243.963 44.0037 244.295 43.5168C244.642 43.0299 245.068 42.6472 245.573 42.369C246.076 42.0733 246.669 41.9255 247.347 41.9255C248.303 41.9255 249.024 42.2125 249.512 42.7864C250.016 43.343 250.269 44.1256 250.269 45.1342C250.269 45.8125 250.181 46.4212 250.008 46.9603C249.852 47.482 249.695 47.8646 249.538 48.1081H245.939C246.181 47.8646 246.389 47.543 246.565 47.1429C246.755 46.7428 246.852 46.3603 246.852 45.9951C246.852 45.6299 246.764 45.3256 246.591 45.082C246.416 44.8385 246.121 44.7168 245.704 44.7168C245.286 44.7168 244.886 44.8646 244.504 45.1603C244.12 45.4385 243.807 45.8385 243.565 46.3603C243.337 46.882 243.225 47.4994 243.225 48.2125ZM257.335 55.2299C255.978 55.2299 254.804 54.9517 253.813 54.3951C252.839 53.8385 252.091 53.0559 251.57 52.0472C251.048 51.0386 250.787 49.882 250.787 48.5777C250.787 47.256 251.048 46.0994 251.57 45.1081C252.091 44.0995 252.822 43.3169 253.761 42.7603C254.7 42.2037 255.786 41.9255 257.022 41.9255C258.378 41.9255 259.507 42.1951 260.413 42.7342C261.317 43.2733 261.995 44.0037 262.448 44.9255C262.899 45.8473 263.126 46.8647 263.126 47.9777C263.126 48.2559 263.107 48.5516 263.074 48.8646C263.055 49.1603 263.029 49.3864 262.996 49.5429H253.448V47.4038H260.387L259.787 47.8994C259.787 46.8908 259.56 46.1255 259.109 45.6038C258.656 45.0647 257.968 44.7951 257.048 44.7951C256.178 44.7951 255.49 45.0647 254.987 45.6038C254.499 46.1255 254.257 46.9169 254.257 47.9777V48.9429C254.257 49.6907 254.387 50.3082 254.648 50.7951C254.909 51.2646 255.274 51.6211 255.743 51.8646C256.23 52.0907 256.778 52.2038 257.387 52.2038C257.994 52.2038 258.509 52.1255 258.926 51.969C259.343 51.8125 259.69 51.595 259.97 51.3168C260.247 51.0211 260.465 50.6907 260.622 50.3255L262.891 52.5951C262.422 53.2733 261.734 53.8821 260.83 54.4212C259.943 54.9602 258.777 55.2299 257.335 55.2299ZM270.442 55.2299C269.502 55.2299 268.606 55.1255 267.755 54.9168C266.901 54.6908 266.154 54.3863 265.511 54.0038C264.866 53.6037 264.354 53.1517 263.972 52.6472L265.694 50.1168C266.059 50.482 266.493 50.8472 266.998 51.2125C267.52 51.5603 268.075 51.8473 268.668 52.0733C269.275 52.282 269.901 52.3864 270.546 52.3864C271.049 52.3864 271.44 52.3081 271.72 52.1516C272.014 51.9777 272.163 51.7254 272.163 51.3951C272.163 51.0647 271.981 50.8124 271.616 50.6386C271.267 50.4647 270.755 50.2907 270.076 50.1168L268.355 49.6994C267.589 49.4907 266.901 49.2386 266.294 48.9429C265.701 48.6472 265.232 48.2646 264.885 47.7951C264.553 47.3082 264.389 46.6907 264.389 45.9429C264.389 44.6734 264.859 43.6907 265.798 42.9951C266.737 42.2995 267.989 41.9516 269.555 41.9516C270.945 41.9516 272.119 42.2037 273.076 42.7081C274.049 43.195 274.763 43.7167 275.216 44.2733L273.546 46.7777C272.92 46.1343 272.232 45.6386 271.485 45.2907C270.736 44.9428 269.989 44.769 269.242 44.769C268.789 44.769 268.433 44.856 268.172 45.0299C267.911 45.1864 267.781 45.4212 267.781 45.7342C267.781 46.0646 267.937 46.3254 268.25 46.5168C268.58 46.7082 269.171 46.9169 270.024 47.1429L271.459 47.5342C272.868 47.9167 273.893 48.4038 274.537 48.9951C275.18 49.5863 275.502 50.3689 275.502 51.3429C275.502 52.1604 275.284 52.8647 274.85 53.4559C274.414 54.0299 273.824 54.4733 273.076 54.7864C272.327 55.0821 271.45 55.2299 270.442 55.2299ZM281.987 55.2299C281.048 55.2299 280.265 55.056 279.639 54.7081C279.03 54.3602 278.577 53.8821 278.283 53.2733C277.986 52.6646 277.839 51.969 277.839 51.1864V40.6733L281.57 38.7168V50.5081C281.57 51.0299 281.681 51.3951 281.909 51.6038C282.151 51.8125 282.457 51.9168 282.822 51.9168C283.221 51.9168 283.586 51.7864 283.917 51.5255C284.264 51.2473 284.534 50.9255 284.726 50.5603L285.796 53.6125C285.516 53.9604 285.056 54.3168 284.413 54.682C283.768 55.0472 282.96 55.2299 281.987 55.2299ZM285.117 45.0299H275.935V42.1864H285.117V45.0299Z" fill="#0073F9"/>
<path d="M42.2981 18.0207L20.8847 54.9689H0L31.8524 0L42.2981 18.0207Z" fill="#0073F9"/>
<path d="M73.0435 60H17.8882L20.7809 54.9918H63.6356L42.2081 17.9349L45.4625 12.2981L73.0435 60Z" fill="#0073F9"/>
</g>
</g>
<defs>
<clipPath id="clip0_407_3118">
<rect width="286.211" height="60" fill="white"/>
</clipPath>
</defs>
</svg>
